<?xml version="1.0" encoding="UTF-8"?>
<!DOCTYPE svg PUBLIC "-//W3C//DTD SVG 1.1//EN" "http://www.w3.org/Graphics/SVG/1.1/DTD/svg11.dtd">
<!-- Creator: CorelDRAW X7 -->
<svg xmlns="http://www.w3.org/2000/svg" xml:space="preserve" width="214.5mm" height="35.216mm" version="1.1" style="shape-rendering:geometricPrecision; text-rendering:geometricPrecision; image-rendering:optimizeQuality; fill-rule:evenodd; clip-rule:evenodd"
viewBox="0 0 21450 3522"
 xmlns:xlink="http://www.w3.org/1999/xlink">
 <defs>
  <style type="text/css">
   <![CDATA[
    .fil4 {fill:none}
    .fil9 {fill:#fff}
    .fil7 {fill:#fff;fill-rule:nonzero}
    .fil8 {fill:#AB3131;fill-rule:nonzero}
    .fil1 {fill:url(#id2)}
    .fil2 {fill:url(#id3)}
    .fil0 {fill:url(#id4)}
    .fil5 {fill:url(#id5)}
    .fil6 {fill:url(#id6);fill-opacity:0.501961}
    .fil3 {fill:url(#id7);fill-opacity:0.501961}
   ]]>
  </style>
     <clipPath id="id0">
      <path d="M14943 1106c270,-344 539,-688 809,-1032 -348,177 -719,302 -1091,419l-3 1 -4 0c-617,4 -1147,482 -1227,1093 -34,260 7,508 135,738 59,95 119,198 199,277 118,-147 235,-293 353,-440 -51,-60 -80,-129 -112,-201l-1 -2 0 -2c-38,-151 -50,-302 12,-449 59,-141 144,-270 277,-350l0 -1 1 0c109,-57 214,-103 339,-112l1 0 1 0c112,2 212,5 311,61z"/>
     </clipPath>
     <clipPath id="id1">
      <path d="M14338 2416c-269,344 -539,687 -808,1031 348,-177 718,-301 1090,-419l4 -1 4 0c617,-4 1147,-482 1227,-1092 34,-261 -7,-508 -135,-739 -60,-94 -119,-197 -200,-276 -117,146 -235,293 -352,439 51,60 80,130 112,201l0 2 1 2c38,151 49,303 -13,450 -59,140 -143,270 -276,350l0 0 -1 1c-110,56 -214,103 -339,111l-1 0 -1 0c-112,-1 -212,-5 -312,-60z"/>
     </clipPath>
  <linearGradient id="id2" gradientUnits="userSpaceOnUse" x1="15588.1" y1="1193.05" x2="13743" y2="3212.59">
   <stop offset="0" style="stop-opacity:1; stop-color:#932B2B"/>
   <stop offset="0.239216" style="stop-opacity:1; stop-color:#E15555"/>
   <stop offset="0.721569" style="stop-opacity:1; stop-color:#922121"/>
   <stop offset="1" style="stop-opacity:1; stop-color:#E55555"/>
  </linearGradient>
  <linearGradient id="id3" gradientUnits="userSpaceOnUse" xlink:href="#id2" x1="14682.1" y1="-4.09" x2="14485.2" y2="2680.33">
  </linearGradient>
  <linearGradient id="id4" gradientUnits="userSpaceOnUse" xlink:href="#id2" x1="13693.6" y1="2328.56" x2="15538.7" y2="309.03">
  </linearGradient>
  <linearGradient id="id5" gradientUnits="userSpaceOnUse" xlink:href="#id2" x1="14599.7" y1="3525.71" x2="14796.5" y2="841.29">
  </linearGradient>
  <linearGradient id="id6" gradientUnits="userSpaceOnUse" x1="14193.6" y1="3775.83" x2="15114.7" y2="1915.31">
   <stop offset="0" style="stop-opacity:1; stop-color:#721C1C"/>
   <stop offset="1" style="stop-opacity:1; stop-color:#AE3737"/>
  </linearGradient>
  <linearGradient id="id7" gradientUnits="userSpaceOnUse" xlink:href="#id6" x1="15088.1" y1="-254.21" x2="14167" y2="1606.31">
  </linearGradient>
 </defs>
 <g id="Camada_x0020_1">
  <metadata id="CorelCorpID_0Corel-Layer"/>
  <g id="_759007539136">
   <g>
    <path class="fil0" d="M13764 2638c127,-159 254,-318 382,-477 -59,-61 -89,-136 -122,-210 -37,-147 -47,-293 12,-434 61,-145 144,-265 266,-338 101,-53 205,-101 329,-109 107,1 214,2 318,67 297,-379 595,-758 892,-1137 -377,205 -780,342 -1187,470 -631,4 -1168,491 -1251,1113 -34,268 7,520 138,755 68,107 132,218 223,300z"/>
    <path class="fil1" d="M15518 884c-127,159 -255,318 -382,476 58,61 89,137 121,210 38,148 48,294 -11,435 -61,145 -144,264 -266,338 -102,52 -205,101 -330,109 -107,-1 -213,-3 -318,-68 -297,379 -594,758 -891,1138 376,-206 780,-342 1187,-471 630,-3 1168,-490 1251,-1113 34,-267 -8,-520 -138,-754 -68,-107 -133,-218 -223,-300z"/>
    <path class="fil2" d="M14943 1106c270,-344 539,-688 809,-1032 -348,177 -719,302 -1091,419l-3 1 -4 0c-617,4 -1147,482 -1227,1093 -34,260 7,508 135,738 59,95 119,198 199,277 118,-147 235,-293 353,-440 -51,-60 -80,-129 -112,-201l-1 -2 0 -2c-38,-151 -50,-302 12,-449 59,-141 144,-270 277,-350l0 -1 1 0c109,-57 214,-103 339,-112l1 0 1 0c112,2 212,5 311,61z"/>
    <g style="clip-path:url(#id0)">
     <g>
      <path id="1" class="fil3" d="M15752 74l-882 644c-684,5 -884,191 -1361,560l-6 -216 524 -584 953 -161 772 -243z"/>
     </g>
    </g>
    <path class="fil4" d="M14943 1106c270,-344 539,-688 809,-1032 -348,177 -719,302 -1091,419l-3 1 -4 0c-617,4 -1147,482 -1227,1093 -34,260 7,508 135,738 59,95 119,198 199,277 118,-147 235,-293 353,-440 -51,-60 -80,-129 -112,-201l-1 -2 0 -2c-38,-151 -50,-302 12,-449 59,-141 144,-270 277,-350l0 -1 1 0c109,-57 214,-103 339,-112l1 0 1 0c112,2 212,5 311,61z"/>
    <path class="fil5" d="M14338 2416c-269,344 -539,687 -808,1031 348,-177 718,-301 1090,-419l4 -1 4 0c617,-4 1147,-482 1227,-1092 34,-261 -7,-508 -135,-739 -60,-94 -119,-197 -200,-276 -117,146 -235,293 -352,439 51,60 80,130 112,201l0 2 1 2c38,151 49,303 -13,450 -59,140 -143,270 -276,350l0 0 -1 1c-110,56 -214,103 -339,111l-1 0 -1 0c-112,-1 -212,-5 -312,-60z"/>
    <g style="clip-path:url(#id1)">
     <g>
      <path id="1" class="fil6" d="M13530 3447l882 -644c684,-4 884,-190 1361,-559l5 216 -523 584 -953 160 -772 243z"/>
     </g>
    </g>
    <path class="fil4" d="M14338 2416c-269,344 -539,687 -808,1031 348,-177 718,-301 1090,-419l4 -1 4 0c617,-4 1147,-482 1227,-1092 34,-261 -7,-508 -135,-739 -60,-94 -119,-197 -200,-276 -117,146 -235,293 -352,439 51,60 80,130 112,201l0 2 1 2c38,151 49,303 -13,450 -59,140 -143,270 -276,350l0 0 -1 1c-110,56 -214,103 -339,111l-1 0 -1 0c-112,-1 -212,-5 -312,-60z"/>
   </g>
   <path class="fil7" d="M78 705l434 0c0,28 326,449 979,1262 565,-716 885,-1136 960,-1262l433 0 0 2149 -452 0c-25,0 -37,-13 -37,-38l0 -1167c0,-70 6,-158 19,-264l0 -19 -19 0c-7,67 -309,475 -904,1224l-76 0c-601,-765 -902,-1173 -903,-1224l-20 0 0 1488 -414 0 0 -2149zm4063 57l452 0c89,101 503,797 1243,2090l-546 0c-236,-374 -544,-927 -923,-1657 -100,135 -395,656 -885,1563 -37,63 -62,94 -75,94l-490 0 0 -19c771,-1323 1179,-2014 1224,-2071zm2081 -18l1469 0c261,0 424,56 489,169 26,87 38,163 38,226l-2033 0 18 38 0 1223 -18 38 1543 0 0 -452 -809 0 0 -358 1318 0 0 659c0,376 -132,565 -396,565l-1770 0c-264,0 -395,-189 -395,-565l0 -979c0,-293 62,-462 187,-508 77,-38 196,-56 359,-56zm3096 18l451 0c89,101 503,797 1243,2090l-546 0c-236,-374 -543,-927 -922,-1657 -101,135 -396,656 -886,1563 -36,63 -61,94 -75,94l-490 0 0 -19c771,-1323 1179,-2014 1225,-2071z"/>
   <path class="fil8" d="M16126 705l1958 0c251,0 377,176 377,527l0 321c0,231 -69,382 -207,452 -119,26 -212,38 -282,38l-264 0 0 19c83,45 403,303 961,772l0 19 -697 0c-153,-127 -448,-397 -886,-810l-282 0 0 -377 904 0c144,0 225,-32 244,-94l0 -395c-19,-63 -100,-94 -244,-94l-1073 0 0 1770 -509 0 0 -2148zm2593 38l1355 0c636,0 1032,213 1188,640 37,102 55,196 55,283l0 187c0,395 -188,690 -564,886 -166,75 -354,112 -565,112l-1469 0 0 -2108zm509 396l0 1298 715 0c565,0 848,-200 848,-602l0 -113c0,-268 -126,-450 -377,-546 -94,-25 -182,-37 -264,-37l-922 0z"/>
   <polygon class="fil9" points="3597,1939 4988,1939 4988,2219 3597,2219 "/>
   <polygon class="fil9" points="8866,1939 10257,1939 10257,2219 8866,2219 "/>
   <path class="fil8" d="M11259 702l2166 0 0 207 -1507 1525 1507 0 0 414 -2316 0 0 -225c0,-22 358,-392 1073,-1111l396 -414 -1281 0c-25,0 -38,-13 -38,-37l0 -359z"/>
  </g>
 </g>
</svg>
